<svg width="16" height="16" viewBox="0 0 16 16" fill="none" xmlns="http://www.w3.org/2000/svg">
<path d="M5.66675 9.33334C5.94289 9.33334 6.16675 9.10948 6.16675 8.83334C6.16675 8.55719 5.94289 8.33334 5.66675 8.33334C5.39061 8.33334 5.16675 8.55719 5.16675 8.83334C5.16675 9.10948 5.39061 9.33334 5.66675 9.33334Z" fill="#5B5C60"/>
<path d="M8 9.33334C8.27614 9.33334 8.5 9.10948 8.5 8.83334C8.5 8.55719 8.27614 8.33334 8 8.33334C7.72386 8.33334 7.5 8.55719 7.5 8.83334C7.5 9.10948 7.72386 9.33334 8 9.33334Z" fill="#5B5C60"/>
<path d="M10.3333 9.33334C10.6094 9.33334 10.8333 9.10948 10.8333 8.83334C10.8333 8.55719 10.6094 8.33334 10.3333 8.33334C10.0571 8.33334 9.83325 8.55719 9.83325 8.83334C9.83325 9.10948 10.0571 9.33334 10.3333 9.33334Z" fill="#5B5C60"/>
<path d="M5.66675 11.6667C5.94289 11.6667 6.16675 11.4428 6.16675 11.1667C6.16675 10.8905 5.94289 10.6667 5.66675 10.6667C5.39061 10.6667 5.16675 10.8905 5.16675 11.1667C5.16675 11.4428 5.39061 11.6667 5.66675 11.6667Z" fill="#5B5C60"/>
<path d="M8 11.6667C8.27614 11.6667 8.5 11.4428 8.5 11.1667C8.5 10.8905 8.27614 10.6667 8 10.6667C7.72386 10.6667 7.5 10.8905 7.5 11.1667C7.5 11.4428 7.72386 11.6667 8 11.6667Z" fill="#5B5C60"/>
<path d="M10.3333 11.6667C10.6094 11.6667 10.8333 11.4428 10.8333 11.1667C10.8333 10.8905 10.6094 10.6667 10.3333 10.6667C10.0571 10.6667 9.83325 10.8905 9.83325 11.1667C9.83325 11.4428 10.0571 11.6667 10.3333 11.6667Z" fill="#5B5C60"/>
<path d="M5.66675 14C5.94289 14 6.16675 13.7761 6.16675 13.5C6.16675 13.2239 5.94289 13 5.66675 13C5.39061 13 5.16675 13.2239 5.16675 13.5C5.16675 13.7761 5.39061 14 5.66675 14Z" fill="#5B5C60"/>
<path d="M8 14C7.86739 14 7.74022 13.9473 7.64645 13.8536C7.55268 13.7598 7.5 13.6326 7.5 13.5C7.49983 13.4343 7.51264 13.3692 7.5377 13.3085C7.56277 13.2477 7.59959 13.1925 7.64606 13.1461C7.69252 13.0996 7.74771 13.0628 7.80845 13.0377C7.86919 13.0126 7.93429 12.9998 8 13L8.038 13.0027C8.16458 13.0154 8.28153 13.0759 8.36504 13.1719C8.44856 13.2679 8.49235 13.3921 8.48751 13.5192C8.48266 13.6463 8.42955 13.7668 8.33897 13.8561C8.2484 13.9455 8.12718 13.9969 8 14Z" fill="#5B5C60"/>
<path d="M10.3333 14C10.6094 14 10.8333 13.7761 10.8333 13.5C10.8333 13.2239 10.6094 13 10.3333 13C10.0571 13 9.83325 13.2239 9.83325 13.5C9.83325 13.7761 10.0571 14 10.3333 14Z" fill="#5B5C60"/>
<path d="M3 16C2.44867 16 2 15.5513 2 15V7C2 6.44867 2.44867 6 3 6H4V4C4 1.79467 5.79467 0 8 0C10.2053 0 12 1.79467 12 4V6H13C13.5513 6 14 6.44867 14 7V15C14 15.5513 13.5513 16 13 16H3ZM3 6.66667C2.91159 6.66667 2.82681 6.70179 2.7643 6.7643C2.70179 6.82681 2.66667 6.91159 2.66667 7V15C2.66667 15.0884 2.70179 15.1732 2.7643 15.2357C2.82681 15.2982 2.91159 15.3333 3 15.3333H13C13.0884 15.3333 13.1732 15.2982 13.2357 15.2357C13.2982 15.1732 13.3333 15.0884 13.3333 15V7C13.3333 6.91159 13.2982 6.82681 13.2357 6.7643C13.1732 6.70179 13.0884 6.66667 13 6.66667H3ZM11.3333 6V4C11.3333 2.162 9.838 0.666667 8 0.666667C6.162 0.666667 4.66667 2.162 4.66667 4V6H11.3333Z" fill="#5B5C60"/>
</svg>
